<svg width="13" height="12" viewBox="0 0 13 12" fill="none" xmlns="http://www.w3.org/2000/svg">
<path d="M12.0912 5.80999C12.0912 2.69306 9.5644 0.166245 6.44746 0.166245C3.33052 0.166245 0.803711 2.69306 0.803711 5.80999C0.803711 8.62693 2.86756 10.9618 5.56562 11.3852V7.44139H4.13264V5.80999H5.56562V4.56661C5.56562 3.15214 6.40822 2.37083 7.69738 2.37083C8.31484 2.37083 8.96069 2.48106 8.96069 2.48106V3.86996H8.24905C7.54795 3.86996 7.3293 4.30501 7.3293 4.75135V5.80999H8.89456L8.64433 7.44139H7.3293V11.3852C10.0274 10.9618 12.0912 8.62698 12.0912 5.80999Z" fill="#1877F2"/>
<path d="M8.64438 7.44139L8.8946 5.80999H7.32935V4.75135C7.32935 4.30496 7.548 3.86996 8.2491 3.86996H8.96074V2.48106C8.96074 2.48106 8.31489 2.37083 7.69738 2.37083C6.40827 2.37083 5.56567 3.15214 5.56567 4.56661V5.80999H4.13269V7.44139H5.56567V11.3852C5.85739 11.4309 6.15223 11.4538 6.44751 11.4537C6.74279 11.4538 7.03763 11.4309 7.32935 11.3852V7.44139H8.64438Z" fill="white"/>
</svg>
